<svg xmlns="http://www.w3.org/2000/svg" width="512" height="512" viewBox="0 0 512 512">
  <path fill="#4782da" class="cls-1" d="M15,95H130.248a15,15,0,0,1,15,15V225.169a15,15,0,0,1-15,15H15a15,15,0,0,1-15-15V110A15,15,0,0,1,15,95Zm90.78,177.831H221.028a15,15,0,0,1,15,15V403a15,15,0,0,1-15,15H105.78a15,15,0,0,1-15-15V287.831A15,15,0,0,1,105.78,272.831ZM198.376,95H313.624a15,15,0,0,1,15,15V225.169a15,15,0,0,1-15,15H198.376a15,15,0,0,1-15-15V110A15,15,0,0,1,198.376,95Zm90.78,177.831H404.4a15,15,0,0,1,15,15V403a15,15,0,0,1-15,15H289.156a15,15,0,0,1-15-15V287.831A15,15,0,0,1,289.156,272.831ZM381.752,95H497a15,15,0,0,1,15,15V225.169a15,15,0,0,1-15,15H381.752a15,15,0,0,1-15-15V110A15,15,0,0,1,381.752,95Z"/>
</svg>
